<?xml version="1.0" encoding="UTF-8" standalone="no"?>
<!DOCTYPE svg PUBLIC "-//W3C//DTD SVG 1.1//EN"
        "http://www.w3.org/Graphics/SVG/1.1/DTD/svg11.dtd">
<!-- Generated by graphviz version 2.40.1 (20161225.0304)
 -->
<!-- Title: pam_tacacs Pages: 1 -->
<svg width="432pt" height="378pt"
     viewBox="0.00 0.00 432.00 378.00" xmlns="http://www.w3.org/2000/svg">
    <g id="graph0" class="graph" transform="scale(1 1) rotate(0) translate(4 374)">
        <title>pam_tacacs</title>
        <polygon fill="#ffffff" stroke="transparent" points="-4,4 -4,-374 428,-374 428,4 -4,4"/>
        <g id="clust1" class="cluster">
            <title>cluster_tacacs</title>
            <polygon fill="none" stroke="#000000" stroke-dasharray="1,5"
                     points="169,-8 169,-157 301,-157 301,-8 169,-8"/>
            <text text-anchor="middle" x="226.5" y="-141.8" font-family="Times,serif" font-size="14.00" fill="#000000">
                TACACS+ server
            </text>
        </g>
        <g id="clust2" class="cluster">
            <title>cluster_tacacs_layer</title>
            <polygon fill="none" stroke="#000000" stroke-dasharray="1,5"
                     points="101,-165 101,-241 404,-241 404,-165 101,-165"/>
            <text text-anchor="middle" x="155.5" y="-225.8" font-family="Times,serif" font-size="14.00" fill="#000000">
                TACACS+ layer
            </text>
        </g>
        <g id="clust3" class="cluster">
            <title>cluster_pam_layer</title>
            <polygon fill="none" stroke="#000000" stroke-dasharray="1,5"
                     points="8,-249 8,-325 416,-325 416,-249 8,-249"/>
            <text text-anchor="middle" x="46.5" y="-309.8" font-family="Times,serif" font-size="14.00" fill="#000000">
                PAM layer
            </text>
        </g>
        <!-- tacacs_server -->
        <g id="node1" class="node">
            <title>tacacs_server</title>
            <polygon fill="none" stroke="#000000"
                     points="177.5,-89.5 177.5,-125.5 292.5,-125.5 292.5,-89.5 177.5,-89.5"/>
            <text text-anchor="middle" x="235" y="-103.8" font-family="Times,serif" font-size="14.00" fill="#000000">
                TACACS+ server
            </text>
        </g>
        <!-- auth_database -->
        <g id="node2" class="node">
            <title>auth_database</title>
            <polygon fill="none" stroke="#000000" points="188,-16.5 188,-52.5 282,-52.5 282,-16.5 188,-16.5"/>
            <text text-anchor="middle" x="235" y="-30.8" font-family="Times,serif" font-size="14.00" fill="#000000">Auth
                database
            </text>
        </g>
        <!-- tacacs_server&#45;&gt;auth_database -->
        <g id="edge10" class="edge">
            <title>tacacs_server&#45;&gt;auth_database</title>
            <path fill="none" stroke="#000000" d="M235,-89.4551C235,-89.4551 235,-62.5904 235,-62.5904"/>
            <polygon fill="#000000" stroke="#000000"
                     points="238.5001,-62.5903 235,-52.5904 231.5001,-62.5904 238.5001,-62.5903"/>
        </g>
        <!-- tacacs_authenticate -->
        <g id="node3" class="node">
            <title>tacacs_authenticate</title>
            <polygon fill="none" stroke="#000000"
                     points="299.5,-173.5 299.5,-209.5 396.5,-209.5 396.5,-173.5 299.5,-173.5"/>
            <text text-anchor="middle" x="348" y="-187.8" font-family="Times,serif" font-size="14.00" fill="#000000">
                Authentication
            </text>
        </g>
        <!-- tacacs_authenticate&#45;&gt;tacacs_server -->
        <g id="edge7" class="edge">
            <title>tacacs_authenticate&#45;&gt;tacacs_server</title>
            <path fill="none" stroke="#000000"
                  d="M299.441,-191C292.0071,-191 286.75,-191 286.75,-191 286.75,-191 286.75,-135.6183 286.75,-135.6183"/>
            <polygon fill="#000000" stroke="#000000"
                     points="290.2501,-135.6182 286.75,-125.6183 283.2501,-135.6183 290.2501,-135.6182"/>
        </g>
        <!-- tacacs_authorize -->
        <g id="node4" class="node">
            <title>tacacs_authorize</title>
            <polygon fill="none" stroke="#000000" points="189,-173.5 189,-209.5 281,-209.5 281,-173.5 189,-173.5"/>
            <text text-anchor="middle" x="235" y="-187.8" font-family="Times,serif" font-size="14.00" fill="#000000">
                Authorization
            </text>
        </g>
        <!-- tacacs_authorize&#45;&gt;tacacs_server -->
        <g id="edge8" class="edge">
            <title>tacacs_authorize&#45;&gt;tacacs_server</title>
            <path fill="none" stroke="#000000" d="M235,-173.2733C235,-173.2733 235,-135.6912 235,-135.6912"/>
            <polygon fill="#000000" stroke="#000000"
                     points="238.5001,-135.6911 235,-125.6912 231.5001,-135.6912 238.5001,-135.6911"/>
        </g>
        <!-- tacacs_account -->
        <g id="node5" class="node">
            <title>tacacs_account</title>
            <polygon fill="none" stroke="#000000" points="109,-173.5 109,-209.5 171,-209.5 171,-173.5 109,-173.5"/>
            <text text-anchor="middle" x="140" y="-187.8" font-family="Times,serif" font-size="14.00" fill="#000000">
                Account
            </text>
        </g>
        <!-- tacacs_account&#45;&gt;tacacs_server -->
        <g id="edge9" class="edge">
            <title>tacacs_account&#45;&gt;tacacs_server</title>
            <path fill="none" stroke="#000000"
                  d="M171.4317,-191C178.1394,-191 183.25,-191 183.25,-191 183.25,-191 183.25,-135.6183 183.25,-135.6183"/>
            <polygon fill="#000000" stroke="#000000"
                     points="186.7501,-135.6182 183.25,-125.6183 179.7501,-135.6183 186.7501,-135.6182"/>
        </g>
        <!-- pam_authenticate -->
        <g id="node6" class="node">
            <title>pam_authenticate</title>
            <polygon fill="none" stroke="#000000" points="322,-257.5 322,-293.5 408,-293.5 408,-257.5 322,-257.5"/>
            <text text-anchor="middle" x="365" y="-271.8" font-family="Times,serif" font-size="14.00" fill="#000000">
                Authenticate
            </text>
        </g>
        <!-- pam_authenticate&#45;&gt;tacacs_authenticate -->
        <g id="edge4" class="edge">
            <title>pam_authenticate&#45;&gt;tacacs_authenticate</title>
            <path fill="none" stroke="#000000"
                  d="M359.25,-257.2733C359.25,-257.2733 359.25,-219.6912 359.25,-219.6912"/>
            <polygon fill="#000000" stroke="#000000"
                     points="362.7501,-219.6911 359.25,-209.6912 355.7501,-219.6912 362.7501,-219.6911"/>
        </g>
        <!-- pam_acct_mgmt -->
        <g id="node7" class="node">
            <title>pam_acct_mgmt</title>
            <polygon fill="none" stroke="#000000"
                     points="166.5,-257.5 166.5,-293.5 303.5,-293.5 303.5,-257.5 166.5,-257.5"/>
            <text text-anchor="middle" x="235" y="-271.8" font-family="Times,serif" font-size="14.00" fill="#000000">
                Account management
            </text>
        </g>
        <!-- pam_acct_mgmt&#45;&gt;tacacs_authorize -->
        <g id="edge5" class="edge">
            <title>pam_acct_mgmt&#45;&gt;tacacs_authorize</title>
            <path fill="none" stroke="#000000" d="M235,-257.2733C235,-257.2733 235,-219.6912 235,-219.6912"/>
            <polygon fill="#000000" stroke="#000000"
                     points="238.5001,-219.6911 235,-209.6912 231.5001,-219.6912 238.5001,-219.6911"/>
        </g>
        <!-- pam_session -->
        <g id="node8" class="node">
            <title>pam_session</title>
            <polygon fill="none" stroke="#000000" points="16,-257.5 16,-293.5 148,-293.5 148,-257.5 16,-257.5"/>
            <text text-anchor="middle" x="82" y="-271.8" font-family="Times,serif" font-size="14.00" fill="#000000">
                Session management
            </text>
        </g>
        <!-- pam_session&#45;&gt;tacacs_account -->
        <g id="edge6" class="edge">
            <title>pam_session&#45;&gt;tacacs_account</title>
            <path fill="none" stroke="#000000" d="M128.5,-257.2733C128.5,-257.2733 128.5,-219.6912 128.5,-219.6912"/>
            <polygon fill="#000000" stroke="#000000"
                     points="132.0001,-219.6911 128.5,-209.6912 125.0001,-219.6912 132.0001,-219.6911"/>
        </g>
        <!-- client -->
        <g id="node9" class="node">
            <title>client</title>
            <polygon fill="none" stroke="#000000" points="208,-333.5 208,-369.5 262,-369.5 262,-333.5 208,-333.5"/>
            <text text-anchor="middle" x="235" y="-347.8" font-family="Times,serif" font-size="14.00" fill="#000000">
                client
            </text>
        </g>
        <!-- client&#45;&gt;pam_authenticate -->
        <g id="edge1" class="edge">
            <title>client&#45;&gt;pam_authenticate</title>
            <path fill="none" stroke="#000000"
                  d="M262.2523,-351C300.3724,-351 365,-351 365,-351 365,-351 365,-303.7764 365,-303.7764"/>
            <polygon fill="#000000" stroke="#000000"
                     points="368.5001,-303.7764 365,-293.7764 361.5001,-303.7765 368.5001,-303.7764"/>
        </g>
        <!-- client&#45;&gt;pam_acct_mgmt -->
        <g id="edge2" class="edge">
            <title>client&#45;&gt;pam_acct_mgmt</title>
            <path fill="none" stroke="#000000" d="M235,-333.4891C235,-333.4891 235,-303.645 235,-303.645"/>
            <polygon fill="#000000" stroke="#000000"
                     points="238.5001,-303.645 235,-293.645 231.5001,-303.6451 238.5001,-303.645"/>
        </g>
        <!-- client&#45;&gt;pam_session -->
        <g id="edge3" class="edge">
            <title>client&#45;&gt;pam_session</title>
            <path fill="none" stroke="#000000"
                  d="M207.9989,-351C164.0756,-351 82,-351 82,-351 82,-351 82,-303.7764 82,-303.7764"/>
            <polygon fill="#000000" stroke="#000000"
                     points="85.5001,-303.7764 82,-293.7764 78.5001,-303.7765 85.5001,-303.7764"/>
        </g>
    </g>
</svg>
